<svg version="1.1" xmlns="http://www.w3.org/2000/svg" xmlns:xlink="http://www.w3.org/1999/xlink" width="105.58742" height="135.78815" viewBox="0,0,105.58742,135.78815"><defs><linearGradient x1="241.50791" y1="115.25015" x2="241.50791" y2="249.79145" gradientUnits="userSpaceOnUse" id="color-1"><stop offset="0" stop-color="#400323"/><stop offset="1" stop-color="#402006"/></linearGradient><linearGradient x1="227.47366" y1="119.10309" x2="227.47366" y2="160.25015" gradientUnits="userSpaceOnUse" id="color-2"><stop offset="0" stop-color="#ff8114"/><stop offset="1" stop-color="#ff5b3c"/></linearGradient><linearGradient x1="246.24866" y1="167.2889" x2="246.24866" y2="237.39691" gradientUnits="userSpaceOnUse" id="color-3"><stop offset="0" stop-color="#ff5346"/><stop offset="1" stop-color="#ff0d90"/></linearGradient><linearGradient x1="240.75" y1="119.75015" x2="240.75" y2="213.51584" gradientUnits="userSpaceOnUse" id="color-4"><stop offset="0" stop-color="#ff8114"/><stop offset="1" stop-color="#ff2577"/></linearGradient></defs><g transform="translate(-189.00116,-115.25015)"><g data-paper-data="{&quot;isPaintingLayer&quot;:true}" fill-rule="nonzero" stroke-linejoin="miter" stroke-miterlimit="10" stroke-dasharray="" stroke-dashoffset="0" style="mix-blend-mode: normal"><path d="M270.96692,115.25015c0,0 11.14016,1.49649 16.94628,7.59976c4.88646,5.13654 4.59825,14.58349 4.59825,18.73243c0,3.74891 -0.93064,12.45585 -5.83086,17.54845c-5.79643,6.02399 -15.71367,8.18529 -15.71367,8.18529l-28.72237,0.69789l40.98332,81.77749l-34.45139,-17.06134l-32.51768,-64.11609l-4.00746,0.15726l-0.67066,51.7087l-21.5947,-16.06137l-0.98482,-87.37309z" data-paper-data="{&quot;index&quot;:null}" fill="url(#color-1)" stroke="#000000" stroke-width="0" stroke-linecap="round"/><path d="M192.49866,160.25015v-39.77549l69.95,-1.37157z" fill="url(#color-2)" stroke="#000000" stroke-width="0" stroke-linecap="round"/><path d="M251.6478,228.71141l-30.02785,-60.10802l15.22958,-0.31449l37.02785,73.10801z" fill="url(#color-3)" stroke="#000000" stroke-width="0" stroke-linecap="butt"/><path d="M269.99866,119.75015c0,0 9.30737,1.25029 14.15826,6.34944c4.08254,4.29147 3.84174,12.1842 3.84174,15.65055c0,3.13214 -0.77753,10.40661 -4.87156,14.66137c-4.8428,5.03292 -13.12844,6.83863 -13.12844,6.83863l-62.00557,1.2158l-0.14258,49.04989l-13.86453,-10.9125l-0.48731,-37.85319z" data-paper-data="{&quot;index&quot;:null}" fill="url(#color-4)" stroke="#000000" stroke-width="0" stroke-linecap="round"/><text transform="translate(285.75,249.29218) scale(0.14551,0.14551)" font-size="40" xml:space="preserve" fill="#000000" fill-rule="nonzero" stroke="none" stroke-width="1" stroke-linecap="butt" stroke-linejoin="miter" stroke-miterlimit="10" stroke-dasharray="" stroke-dashoffset="0" font-family="Sans Serif" font-weight="normal" text-anchor="start" style="mix-blend-mode: normal"><tspan x="0" dy="0">TM</tspan></text></g></g></svg>